<svg xmlns="http://www.w3.org/2000/svg" viewBox="0 0 960 540" role="img" aria-labelledby="title desc">
  <title id="title">Aperçu abstrait — Révision et courbe d’Ebbinghaus</title>
  <desc id="desc">Illustration abstraite d’un planning et d’une courbe de rétention avec points de rappel.</desc>
  <rect x="16" y="16" width="928" height="508" rx="18" fill="#161822" stroke="#2A2D3A"/>
  <rect x="52" y="62" width="856" height="120" rx="16" fill="#0E0F14" stroke="#2A2D3A"/>
  <rect x="52" y="202" width="420" height="276" rx="16" fill="#0E0F14" stroke="#2A2D3A"/>
  <rect x="488" y="202" width="420" height="276" rx="16" fill="#0E0F14" stroke="#2A2D3A"/>

  <path d="M100 430 C170 280, 260 340, 332 280 C410 214, 510 272, 588 228 C690 168, 780 214, 860 186" fill="none" stroke="#4DE3FF" stroke-width="4" stroke-linecap="round" opacity="0.85"/>
  <circle cx="170" cy="280" r="6" fill="#F4C793"/>
  <circle cx="332" cy="280" r="6" fill="#F4C793"/>
  <circle cx="588" cy="228" r="6" fill="#F4C793"/>

  <path d="M88 98 H872" stroke="#2A2D3A"/>
  <path d="M88 132 H720" stroke="#2A2D3A"/>
  <path d="M88 166 H640" stroke="#2A2D3A"/>

  <path d="M94 242 H448" stroke="#2A2D3A"/>
  <path d="M94 290 H400" stroke="#2A2D3A"/>
  <path d="M94 338 H352" stroke="#2A2D3A"/>
  <path d="M94 386 H304" stroke="#2A2D3A"/>

  <path d="M520 242 H872" stroke="#2A2D3A"/>
  <path d="M520 290 H824" stroke="#2A2D3A"/>
  <path d="M520 338 H776" stroke="#2A2D3A"/>
  <path d="M520 386 H728" stroke="#2A2D3A"/>
</svg>
